<svg version="1.1" id="Layer_1" xmlns="http://www.w3.org/2000/svg" x="0" y="0" viewBox="0 0 256 256" style="enable-background:new 0 0 256 256" xml:space="preserve"><style>.st0{fill:#4671c6}.st1{fill:#f9cfcf}.st2{fill:#f9a7a7}.st3{fill:#a4c9ff}.st4{fill:#3762cc}.st5{fill:#e0ebfc}</style><path class="st3" d="M159.24 194.261H67.01a6.448 6.448 0 0 1 0-12.896h92.23a6.448 6.448 0 0 1 0 12.896zM208.906 156.489H17.344A9.344 9.344 0 0 1 8 147.145V25.666a9.344 9.344 0 0 1 9.344-9.344h191.561a9.344 9.344 0 0 1 9.344 9.344v121.478a9.343 9.343 0 0 1-9.343 9.345z"/><path d="M19.681 141.304V31.506a3.504 3.504 0 0 1 3.504-3.504h179.881a3.504 3.504 0 0 1 3.504 3.504v109.797a3.504 3.504 0 0 1-3.504 3.504H23.185a3.502 3.502 0 0 1-3.504-3.503z" style="fill:#6bdddd"/><path class="st5" d="M92.684 156.489h40.882v24.877H92.684z"/><path class="st4" d="M159.24 196.261H67.01c-4.658 0-8.448-3.79-8.448-8.447 0-4.658 3.79-8.448 8.448-8.448h92.23c4.658 0 8.447 3.79 8.447 8.448 0 4.657-3.789 8.447-8.447 8.447zm-92.23-12.895a4.453 4.453 0 0 0-4.448 4.448 4.452 4.452 0 0 0 4.448 4.447h92.23a4.452 4.452 0 0 0 4.447-4.447 4.452 4.452 0 0 0-4.447-4.448H67.01zM208.905 158.488H17.344C11.089 158.488 6 153.399 6 147.144V25.666c0-6.255 5.089-11.344 11.344-11.344h191.561c6.256 0 11.345 5.089 11.345 11.344v121.478c0 6.255-5.089 11.344-11.345 11.344zM17.344 18.322c-4.05 0-7.344 3.294-7.344 7.344v121.478c0 4.05 3.294 7.344 7.344 7.344h191.561c4.05 0 7.345-3.294 7.345-7.344V25.666c0-4.05-3.295-7.344-7.345-7.344H17.344z"/><path class="st4" d="M133.566 183.366H92.684a2 2 0 0 1-2-2v-24.877a2 2 0 0 1 2-2h40.882a2 2 0 0 1 2 2v24.877a2 2 0 0 1-2 2zm-38.882-4h36.882v-20.877H94.684v20.877z"/><path class="st2" d="M47.079 58.239H33.308a2.732 2.732 0 0 1-2.732-2.732V41.736a2.732 2.732 0 0 1 2.732-2.732h13.771a2.732 2.732 0 0 1 2.732 2.732v13.771a2.732 2.732 0 0 1-2.732 2.732z"/><path class="st1" d="M47.079 87.377H33.308a2.732 2.732 0 0 1-2.732-2.732V70.874a2.732 2.732 0 0 1 2.732-2.732h13.771a2.732 2.732 0 0 1 2.732 2.732v13.771a2.732 2.732 0 0 1-2.732 2.732z"/><path class="st2" d="M47.079 118.337H33.308a2.732 2.732 0 0 1-2.732-2.732v-13.771a2.732 2.732 0 0 1 2.732-2.732h13.771a2.732 2.732 0 0 1 2.732 2.732v13.771a2.732 2.732 0 0 1-2.732 2.732z"/><path class="st5" d="M19.681 129.759v11.545a3.504 3.504 0 0 0 3.504 3.504h179.881a3.504 3.504 0 0 0 3.504-3.504v-11.545H19.681z"/><path class="st4" d="M203.065 146.808H23.185a5.51 5.51 0 0 1-5.504-5.504V31.506a5.51 5.51 0 0 1 5.504-5.504h179.881a5.51 5.51 0 0 1 5.504 5.504v109.797a5.511 5.511 0 0 1-5.505 5.505zM23.185 30.002c-.829 0-1.504.675-1.504 1.504v109.797c0 .83.675 1.504 1.504 1.504h179.881c.829 0 1.504-.675 1.504-1.504V31.506c0-.829-.675-1.504-1.504-1.504H23.185z"/><path class="st5" d="m45.646 79.6 7.497 24.181c.278.896 1.499 1.013 1.941.185l4.885-9.149a5.397 5.397 0 0 1 2.215-2.215l9.149-4.885c.828-.442.711-1.663-.185-1.941l-24.181-7.497a1.055 1.055 0 0 0-1.321 1.321z"/><path class="st0" d="M210.478 239.678h-7.817c-20.723 0-37.522-16.799-37.522-37.522v-47.825c0-22.881 18.549-41.43 41.43-41.43s41.43 18.549 41.43 41.43v47.825c.001 20.723-16.798 37.522-37.521 37.522z"/><path class="st0" d="M165.139 154.332v11.186H248v-11.186c0-22.881-18.549-41.43-41.43-41.43-22.882-.001-41.431 18.548-41.431 41.43z"/><path class="st4" d="M210.479 241.678h-7.817c-21.792 0-39.521-17.729-39.521-39.522v-47.825c0-23.947 19.482-43.43 43.43-43.43S250 130.384 250 154.332v47.825c0 21.792-17.729 39.521-39.521 39.521zm-3.91-126.777c-21.741 0-39.43 17.688-39.43 39.43v47.825c0 19.587 15.935 35.522 35.521 35.522h7.817c19.587 0 35.521-15.935 35.521-35.522v-47.825c.002-21.741-17.686-39.43-39.429-39.43z"/><path class="st4" d="M248 167.518h-82.86a2 2 0 0 1-2-2v-11.187c0-23.947 19.482-43.43 43.43-43.43S250 130.384 250 154.332v11.187a2 2 0 0 1-2 1.999zm-80.86-4H246v-9.187c0-21.742-17.688-39.43-39.431-39.43-21.741 0-39.43 17.688-39.43 39.43v9.187z"/><path class="st4" d="M206.569 167.518a2 2 0 0 1-2-2v-52.617a2 2 0 0 1 4 0v52.617a2 2 0 0 1-2 2z"/><path class="st5" d="M206.57 151.639a4.972 4.972 0 0 1-4.972-4.972v-14.915a4.972 4.972 0 1 1 9.944 0v14.915a4.973 4.973 0 0 1-4.972 4.972z"/><path class="st4" d="M206.569 153.639a6.98 6.98 0 0 1-6.972-6.972v-14.915c0-3.844 3.128-6.971 6.972-6.971s6.972 3.127 6.972 6.971v14.915a6.98 6.98 0 0 1-6.972 6.972zm0-24.858a2.975 2.975 0 0 0-2.972 2.971v14.915c0 1.639 1.333 2.972 2.972 2.972s2.972-1.333 2.972-2.972v-14.915a2.975 2.975 0 0 0-2.972-2.971z"/><path class="st1" d="M218.264 93.891c-3.273-2.872-7.379-4.454-11.641-4.454-4.211.02-8.331 1.64-11.599 4.563-1.018.911-1.582 2.262-1.547 3.708.036 1.458.671 2.792 1.743 3.661.743.602 1.627.92 2.555.92h.001c.998 0 1.979-.381 2.763-1.071 1.759-1.551 3.879-2.377 6.172-2.387 2.234 0 4.346.806 6.108 2.33a4.199 4.199 0 0 0 2.736 1.046c.942 0 1.835-.326 2.583-.944 1.064-.879 1.687-2.219 1.709-3.677.021-1.447-.556-2.793-1.583-3.695z"/><path class="st1" d="M230.643 84.363c-6.349-7.233-14.855-11.217-23.952-11.217h-.144c-9.153.043-17.672 4.107-23.99 11.442-.849.986-1.267 2.324-1.146 3.671.118 1.317.744 2.524 1.721 3.315a4.021 4.021 0 0 0 2.553.921c1.198 0 2.361-.551 3.191-1.511 4.677-5.414 10.969-8.413 17.716-8.445h.106c6.706 0 12.988 2.94 17.688 8.278.829.941 1.983 1.481 3.167 1.481.94 0 1.832-.327 2.584-.947.966-.798 1.581-2.011 1.687-3.329.108-1.347-.322-2.681-1.181-3.659z"/><path class="st2" d="M242.648 74.729c-9.144-11.358-22.254-17.873-35.968-17.873l-.208.001c-13.795.065-26.919 6.702-36.008 18.211-1.63 2.064-1.306 5.186.711 6.821a4.065 4.065 0 0 0 2.575.93h.001c1.252 0 2.435-.59 3.246-1.618 7.459-9.448 18.218-14.897 29.519-14.95h.17c11.235 0 21.982 5.348 29.486 14.672.812 1.009 1.987 1.587 3.224 1.587.948 0 1.849-.33 2.608-.957 1.998-1.65 2.293-4.775.644-6.824z"/></svg>